<?xml version="1.0" encoding="utf-8"?>
<!-- Generator: Adobe Illustrator 24.3.0, SVG Export Plug-In . SVG Version: 6.00 Build 0)  -->
<svg version="1.1" id="Capa_1" xmlns="http://www.w3.org/2000/svg" xmlns:xlink="http://www.w3.org/1999/xlink" x="0px" y="0px"
	 viewBox="0 0 300 300" style="enable-background:new 0 0 300 300;" xml:space="preserve">
<style type="text/css">
	.st0{fill-rule:evenodd;clip-rule:evenodd;fill:#1A1B1A;}
	.st1{fill:#282828;}
	.st2{fill:#ED9812;}
	.st3{fill-rule:evenodd;clip-rule:evenodd;fill:#ED9812;}
	.st4{fill:#F1AC49;}
	.st5{fill:#E9A542;}
	.st6{fill:none;stroke:#ED9812;stroke-width:25;stroke-miterlimit:10;}
	.st7{fill:none;stroke:#F6A75B;stroke-width:4;stroke-miterlimit:10;}
	.st8{fill-rule:evenodd;clip-rule:evenodd;fill:#FFFFFF;}
	.st9{fill:none;stroke:#1A1B1A;stroke-width:25;stroke-miterlimit:10;}
	.st10{fill:none;stroke:#F29100;stroke-width:25;stroke-miterlimit:10;}
	.st11{fill:#FFFFFF;stroke:#F29100;stroke-width:11;stroke-miterlimit:10;}
	.st12{fill:#FFFFFF;stroke:#1D1D1B;stroke-width:11;stroke-miterlimit:10;}
	.st13{fill:#1D1D1B;}
	.st14{fill:#35563D;stroke:#35563D;stroke-miterlimit:10;}
	.st15{fill:#D1CCB6;}
	.st16{fill:#B4AF93;}
	.st17{fill:#5F926F;}
	.st18{fill:#70A984;}
	.st19{fill:#ACD5B7;}
	.st20{fill:#772424;}
	.st21{fill:#1D1D1B;stroke:#FFFFFF;stroke-width:2;stroke-miterlimit:10;}
	.st22{fill:#FFFFFF;}
	.st23{fill:#FFFFFF;stroke:#FFFFFF;stroke-width:3;stroke-miterlimit:10;}
	.st24{fill:#030306;}
	.st25{fill-opacity:0.2;}
	.st26{fill:url(#SVGID_1_);}
	.st27{fill:url(#SVGID_2_);}
	.st28{fill:#551E1E;}
	.st29{fill:#EFD6B3;}
	.st30{fill:#D2B058;}
	.st31{fill:#A38544;}
	.st32{fill:none;}
	.st33{fill:#1D1E1C;stroke:#1D1E1C;stroke-miterlimit:10;}
	.st34{fill:#1D1E1C;}
	.st35{fill:#561E1E;}
	.st36{fill:#D2B057;}
	.st37{fill:#A28443;}
</style>
<g>
	<g>
	</g>
</g>
<path class="st34" d="M150,31.5c-51.79,0-93.78,41.99-93.78,93.79c0,51.8,41.99,93.79,93.78,93.79c51.8,0,93.79-41.99,93.79-93.79
	C243.78,73.49,201.8,31.5,150,31.5z M97.21,192.87c-46.13-35.1-27.58-63.18-27.58-63.18s0.66,3.44,3.53,8.63
	c6.2,36.84,38.25,64.9,76.84,64.9c18.32,0,35.18-6.33,48.48-16.91c2.46,0.04,4.98,0.05,7.53,0.04
	C206.02,186.35,143.34,227.97,97.21,192.87z"/>
<path class="st33" d="M206.02,186.35c0,0-62.68,41.62-108.81,6.52c-46.13-35.1-27.58-63.18-27.58-63.18s0.66,3.44,3.53,8.63
	c6.2,36.84,38.25,64.9,76.84,64.9c18.32,0,35.18-6.33,48.48-16.91C200.95,186.35,203.46,186.36,206.02,186.35z"/>
<path class="st36" d="M227.94,125.29c0,24.72-11.5,46.75-29.46,61.03c-13.31,10.58-30.16,16.91-48.48,16.91
	c-38.59,0-70.64-28.06-76.84-64.9c-0.72-4.24-1.09-8.6-1.09-13.04c0-43.04,34.9-77.94,77.94-77.94
	C193.04,47.35,227.94,82.25,227.94,125.29z"/>
<path class="st37" d="M198.48,186.31c-13.31,10.58-30.16,16.91-48.48,16.91c-38.59,0-70.64-28.06-76.84-64.9
	C81.69,153.85,109.84,184.99,198.48,186.31z"/>
<g>
	<path class="st34" d="M161.8,99.57c0,0.81-0.12,1.67-0.37,2.59c-0.25,0.92-0.72,1.77-1.41,2.56c-0.7,0.78-1.67,1.42-2.92,1.92
		c-1.26,0.49-2.87,0.74-4.84,0.74c-1.34,0-2.97-0.12-4.87-0.37c-1.91-0.25-3.98-0.58-6.22-1.01c-2.24-0.43-4.61-0.92-7.09-1.48
		c-2.49-0.56-4.99-1.13-7.5-1.71c-2.65-0.58-5.28-1.15-7.9-1.71c-2.62-0.56-5.12-1.06-7.5-1.51c-2.38-0.45-4.58-0.81-6.62-1.08
		c-2.04-0.27-3.8-0.4-5.28-0.4c-1.48,0-2.86,0.22-4.14,0.67c-1.28,0.45-2.41,1.05-3.4,1.82c-0.99,0.76-1.76,1.65-2.32,2.66
		c-0.56,1.01-0.84,2.07-0.84,3.19c0,1.7,0.57,3.08,1.71,4.14c1.14,1.05,2.61,1.58,4.4,1.58c0.27,0,0.51-0.02,0.74-0.07
		c0.14,0,0.3-0.01,0.51-0.03c0.2-0.02,0.39-0.03,0.57-0.03c0.22,0,0.44,0.09,0.64,0.27c0.2,0.18,0.3,0.38,0.3,0.61
		c0,0.4-0.3,1.04-0.91,1.92c-0.6,0.87-1.41,1.75-2.42,2.62c-1.01,0.87-2.18,1.64-3.53,2.29c-1.34,0.65-2.74,0.97-4.17,0.97
		c-1.3,0-2.5-0.19-3.6-0.57c-1.1-0.38-2.05-0.93-2.86-1.65c-0.81-0.72-1.44-1.56-1.92-2.52c-0.47-0.96-0.71-2.03-0.71-3.19
		c0-2.82,0.63-5.44,1.88-7.83c1.25-2.4,2.9-4.45,4.94-6.15c2.04-1.7,4.37-3.04,6.99-4c2.62-0.96,5.32-1.45,8.1-1.45
		c1.75,0,3.64,0.11,5.68,0.34c2.04,0.22,4.15,0.5,6.32,0.84c2.17,0.34,4.37,0.71,6.59,1.11c2.22,0.4,4.36,0.81,6.42,1.21
		c2.96,0.58,5.76,1.1,8.41,1.55c2.64,0.45,4.75,0.72,6.32,0.81h1.48c1.66,0,3.22-0.09,4.67-0.27c1.46-0.18,2.73-0.45,3.83-0.81
		c1.1-0.36,1.97-0.83,2.62-1.41c0.65-0.58,0.97-1.25,0.97-2.02c0-0.09-0.01-0.14-0.03-0.17c-0.02-0.02-0.03-0.08-0.03-0.17v-0.4
		c0-0.81,0.58-1.21,1.75-1.21c0.58,0,1.29,0.13,2.12,0.4c0.83,0.27,1.64,0.67,2.42,1.21c0.78,0.54,1.47,1.2,2.05,1.98
		c0.58,0.78,0.9,1.71,0.94,2.79V99.57z M93.15,156.52c-0.09-0.27-0.15-0.52-0.17-0.74c-0.02-0.22-0.03-0.49-0.03-0.81
		c0-1.21,0.26-2.85,0.77-4.91c0.51-2.06,1.2-4.37,2.05-6.93c0.85-2.56,1.8-5.27,2.86-8.14c1.05-2.87,2.1-5.72,3.13-8.54
		c0.81-2.2,1.59-4.31,2.35-6.35c0.76-2.04,1.42-3.91,1.98-5.61c0.56-1.7,1.02-3.18,1.38-4.44c0.36-1.25,0.54-2.2,0.54-2.82
		c0-0.22,0.01-0.3,0.03-0.24c0.02,0.07,0.01,0.06-0.03-0.03c-0.22-0.13-0.34-0.36-0.34-0.67c0-0.45,0.51-0.88,1.55-1.31
		c1.03-0.43,2.17-0.64,3.43-0.64c0.72,0,1.4,0.07,2.05,0.2c0.65,0.13,1.23,0.39,1.75,0.77c0.52,0.38,0.92,0.87,1.21,1.48
		c0.29,0.6,0.44,1.38,0.44,2.32c0,1.39-0.27,3.13-0.8,5.21c-0.54,2.08-1.23,4.34-2.08,6.76c-0.85,2.42-1.8,4.95-2.85,7.6
		c-1.05,2.65-2.09,5.25-3.12,7.8c-0.89,2.24-1.76,4.43-2.61,6.56c-0.85,2.13-1.61,4.12-2.28,5.98c-0.67,1.86-1.21,3.53-1.61,5.01
		c-0.4,1.48-0.6,2.67-0.6,3.56v0.34c0,0.63-0.38,1.18-1.15,1.65c-0.77,0.47-1.72,0.71-2.85,0.71c-0.99,0-1.98-0.28-2.95-0.84
		c-0.97-0.56-1.68-1.56-2.13-2.99L93.15,156.52z"/>
	<path class="st34" d="M143.38,115.44c0,0.22-0.01,0.43-0.03,0.6c-0.02,0.18-0.06,0.36-0.1,0.54c0.31-0.72,0.56-1.36,0.74-1.92
		c0.18-0.56,0.27-1.02,0.27-1.38c0-0.09-0.05-0.22-0.14-0.4c-0.09-0.09-0.16-0.17-0.2-0.24c-0.05-0.07-0.07-0.21-0.07-0.44
		c0-0.49,0.37-0.93,1.11-1.31c0.74-0.38,1.62-0.57,2.66-0.57c0.58,0,1.19,0.09,1.82,0.27c0.63,0.18,1.21,0.47,1.75,0.87
		c0.54,0.4,0.99,0.96,1.34,1.68c0.36,0.72,0.54,1.61,0.54,2.69c0,0.99-0.19,2.1-0.57,3.33c-0.38,1.23-0.88,2.52-1.48,3.87
		c-0.6,1.34-1.27,2.68-1.98,4c-0.72,1.32-1.41,2.59-2.08,3.8c-0.94,1.7-1.79,3.3-2.56,4.77c-0.76,1.48-1.14,2.56-1.14,3.23
		c0,0.27,0.16,0.4,0.47,0.4c0.36,0,0.87-0.29,1.55-0.87c0.67-0.58,1.42-1.36,2.25-2.32c0.83-0.96,1.68-2.04,2.56-3.23
		c0.87-1.19,1.7-2.4,2.49-3.63c0.78-1.23,1.49-2.42,2.12-3.56c0.63-1.14,1.1-2.12,1.41-2.93c0.31-0.81,0.88-1.21,1.68-1.21
		c0.49,0,0.93,0.15,1.31,0.44c0.38,0.29,0.57,0.68,0.57,1.18c0,0.09-0.02,0.21-0.07,0.37c-0.04,0.16-0.09,0.28-0.13,0.37
		c-0.45,0.9-1.04,2.01-1.78,3.33c-0.74,1.32-1.59,2.72-2.56,4.2s-2,2.96-3.09,4.44c-1.1,1.48-2.23,2.81-3.4,4
		c-1.17,1.19-2.33,2.15-3.5,2.89c-1.17,0.74-2.29,1.11-3.36,1.11c-1.57,0-2.84-0.51-3.8-1.55c-0.96-1.03-1.54-2.44-1.71-4.24
		c-1.26,1.7-2.62,3.09-4.1,4.17c-1.48,1.08-3.16,1.61-5.04,1.61c-1.7,0-3.16-0.3-4.37-0.91c-1.21-0.6-2.18-1.38-2.92-2.32
		s-1.28-1.99-1.61-3.16c-0.34-1.16-0.5-2.31-0.5-3.43c0-1.43,0.2-2.93,0.6-4.47c0.4-1.55,0.87-2.99,1.41-4.34
		c2.2-5.25,4.81-9.06,7.83-11.43c3.03-2.38,6.15-3.56,9.38-3.56c0.54,0,1.18,0.07,1.92,0.2c0.74,0.13,1.45,0.4,2.12,0.81
		c0.67,0.4,1.24,0.94,1.71,1.61C143.14,113.48,143.38,114.36,143.38,115.44z M137.86,116.11c0-0.81,0.27-1.43,0.81-1.88h-0.13
		c-1.12,0-2.52,1.08-4.2,3.23c-1.68,2.15-3.44,5.2-5.28,9.14c-0.63,1.3-1.12,2.71-1.48,4.24c-0.36,1.52-0.54,2.94-0.54,4.24
		c0,1.17,0.17,2.19,0.51,3.06c0.34,0.87,0.88,1.31,1.65,1.31c0.67,0,1.39-0.39,2.15-1.18c0.76-0.78,1.55-1.79,2.35-3.03
		c0.81-1.23,1.61-2.61,2.42-4.14c0.81-1.52,1.59-3,2.35-4.44v0.07c0.27-0.54,0.54-1.06,0.81-1.58c0.27-0.51,0.54-1.02,0.81-1.51
		v0.07l1.28-2.82l1.61-3.63c-0.22,0.49-0.55,0.84-0.97,1.04c-0.43,0.2-0.89,0.3-1.38,0.3c-0.72,0-1.36-0.22-1.92-0.67
		C138.14,117.48,137.86,116.87,137.86,116.11z"/>
	<path class="st34" d="M164.96,142.47c-1.03,0.49-2.02,0.87-2.96,1.14c-0.94,0.27-1.77,0.4-2.49,0.4c-1.26,0-2.33-0.21-3.23-0.64
		c-0.9-0.43-1.63-0.99-2.19-1.68c-0.56-0.69-0.96-1.47-1.21-2.32c-0.24-0.85-0.37-1.7-0.37-2.56c0-1.34,0.25-2.48,0.74-3.4
		c0.49-0.92,1.08-1.66,1.75-2.22c0.67-0.56,1.34-0.95,2.02-1.18c0.67-0.22,1.17-0.34,1.48-0.34c0.72,0,1.4,0.21,2.05,0.64
		c0.65,0.43,0.97,1.07,0.97,1.92c0,0.72-0.28,1.33-0.84,1.85c-0.56,0.52-1.2,0.77-1.92,0.77c-0.81,0-1.44-0.25-1.88-0.74
		c-0.27,0.4-0.46,0.84-0.57,1.31c-0.11,0.47-0.17,0.95-0.17,1.45c0,0.85,0.22,1.63,0.67,2.32c0.45,0.7,1.14,1.04,2.08,1.04
		c0.36,0,0.86-0.17,1.51-0.5c0.65-0.34,1.29-0.9,1.92-1.68c0.63-0.78,1.18-1.79,1.65-3.03c0.47-1.23,0.71-2.72,0.71-4.47
		c0-1.43-0.21-3.05-0.64-4.84c-0.43-1.79-1.16-3.81-2.19-6.05c-0.27,0.54-0.57,1.11-0.91,1.71c-0.34,0.6-0.68,1.15-1.04,1.65
		c-0.36,0.49-0.72,0.91-1.08,1.24c-0.36,0.34-0.72,0.5-1.08,0.5c-0.49,0-0.92-0.15-1.28-0.44c-0.36-0.29-0.54-0.68-0.54-1.18
		c0-0.13,0.01-0.26,0.03-0.37c0.02-0.11,0.1-0.28,0.23-0.5l-0.07,0.13c0.36-0.72,0.68-1.38,0.97-1.98c0.29-0.61,0.59-1.15,0.91-1.65
		c0.31-0.54,0.59-1.01,0.84-1.41c0.24-0.4,0.53-0.92,0.84-1.55c-0.45-0.72-0.81-1.49-1.08-2.32c-0.27-0.83-0.4-1.69-0.4-2.59
		c0-0.4,0.09-0.95,0.27-1.65c0.18-0.69,0.48-1.36,0.91-1.98c0.43-0.63,1.02-1.18,1.78-1.65c0.76-0.47,1.75-0.71,2.96-0.71
		c1.43,0,2.45,0.31,3.06,0.94c0.61,0.63,0.91,1.44,0.91,2.42c0,0.76-0.17,1.59-0.5,2.49c-0.34,0.9-0.8,1.75-1.38,2.56l-0.07,0.07
		c2.69,3.09,4.59,5.97,5.72,8.64c1.12,2.67,1.68,5.1,1.68,7.3v0.47c0,0.04,0.02,0.07,0.07,0.07c0,0.09-0.02,0.2-0.07,0.34
		c1.12-1.3,2.12-2.59,2.99-3.87c0.87-1.28,1.6-2.43,2.18-3.46c0.36-0.72,0.85-1.08,1.48-1.08c0.49,0,0.95,0.19,1.38,0.57
		c0.43,0.38,0.64,0.82,0.64,1.31c0,0.13-0.02,0.28-0.07,0.44c-0.05,0.16-0.09,0.28-0.14,0.37c-0.9,1.66-1.97,3.4-3.23,5.21
		c-1.26,1.82-2.62,3.55-4.1,5.21c-1.48,1.66-3.05,3.16-4.71,4.51c-1.66,1.34-3.36,2.35-5.11,3.03H164.96z"/>
	<path class="st34" d="M170.68,108.24c-0.04,0.63-0.22,1.11-0.54,1.45c-0.31,0.34-0.69,0.5-1.14,0.5c-0.54,0-1.09-0.34-1.65-1.01
		c-0.56-0.67-0.84-1.7-0.84-3.09c0-1.57,0.34-2.87,1.01-3.9c0.67-1.03,1.6-1.84,2.79-2.42c1.19-0.58,2.6-0.99,4.24-1.21
		c1.64-0.22,3.4-0.34,5.28-0.34c1.43,0,2.91,0.04,4.44,0.13c1.52,0.09,3.12,0.2,4.77,0.34c0.49-1.25,0.91-2.42,1.24-3.5
		c0.34-1.08,0.5-1.84,0.5-2.29c0-0.09-0.02-0.16-0.07-0.2c-0.14-0.09-0.2-0.27-0.2-0.54c0-0.49,0.37-0.93,1.12-1.31
		c0.75-0.38,1.64-0.57,2.68-0.57c0.54,0,1.13,0.08,1.76,0.24c0.63,0.16,1.22,0.43,1.76,0.81c0.54,0.38,0.99,0.89,1.36,1.51
		c0.36,0.63,0.54,1.44,0.54,2.42c0,1.17-0.23,2.56-0.68,4.17h1.81c1.65,0,3.26-0.04,4.82-0.13c1.56-0.09,2.95-0.22,4.15-0.4
		c1.2-0.18,2.18-0.4,2.91-0.67s1.1-0.61,1.1-1.01c0-1.08,0.47-1.61,1.41-1.61c0.49,0,1.05,0.28,1.68,0.84
		c0.63,0.56,0.94,1.2,0.94,1.92c0,0.76-0.57,1.5-1.71,2.22c-1.14,0.72-2.67,1.34-4.57,1.88s-4.11,0.99-6.62,1.34
		c-2.51,0.36-5.13,0.58-7.87,0.67c-0.99,2.42-2.16,5-3.53,7.73c-1.37,2.73-2.7,5.45-4,8.14c-1.03,2.02-2.01,3.99-2.93,5.92
		c-0.92,1.93-1.75,3.7-2.49,5.31c-0.74,1.61-1.32,3.04-1.75,4.27c-0.43,1.23-0.64,2.19-0.64,2.86c0,0.36,0.07,0.54,0.2,0.54
		c0.4,0,0.94-0.3,1.61-0.91c0.67-0.61,1.41-1.4,2.22-2.39c0.81-0.99,1.65-2.08,2.52-3.29c0.87-1.21,1.7-2.43,2.49-3.66
		c0.78-1.23,1.48-2.4,2.08-3.5c0.61-1.1,1.04-2.03,1.31-2.79c0.31-0.81,0.87-1.21,1.68-1.21c0.49,0,0.93,0.15,1.31,0.44
		c0.38,0.29,0.57,0.68,0.57,1.18c0,0.09-0.02,0.21-0.07,0.37c-0.05,0.16-0.09,0.28-0.14,0.37c-0.45,0.9-1.04,2.01-1.78,3.33
		c-0.74,1.32-1.59,2.72-2.55,4.2c-0.96,1.48-2,2.96-3.09,4.44s-2.23,2.81-3.4,4c-1.17,1.19-2.33,2.15-3.5,2.89
		c-1.17,0.74-2.29,1.11-3.36,1.11c-1.75,0-3.1-0.62-4.07-1.85c-0.96-1.23-1.44-2.92-1.44-5.08c0-0.31,0.01-0.62,0.03-0.91
		c0.02-0.29,0.06-0.59,0.1-0.91c0.14-1.08,0.49-2.48,1.08-4.2c0.58-1.73,1.3-3.65,2.15-5.78c0.85-2.13,1.79-4.38,2.82-6.76
		c1.03-2.38,2.06-4.75,3.09-7.13l2.96-6.72c-2.2,0-4.26,0.03-6.19,0.1c-1.93,0.07-3.6,0.22-5.01,0.47c-1.41,0.25-2.54,0.62-3.4,1.11
		c-0.85,0.49-1.3,1.17-1.34,2.02V108.24z"/>
	<path class="st34" d="M221.78,121.69c0.58,0.36,0.88,0.85,0.88,1.48c0,0.09-0.02,0.22-0.07,0.4c-0.04,0.18-0.11,0.38-0.2,0.6
		c-1.03,2.11-2.33,4.3-3.9,6.59c-1.57,2.29-3.32,4.39-5.24,6.32c-1.93,1.93-3.98,3.52-6.15,4.77c-2.17,1.26-4.38,1.88-6.62,1.88
		c-1.75,0-3.23-0.29-4.44-0.87c-1.21-0.58-2.18-1.33-2.92-2.25c-0.74-0.92-1.28-1.95-1.61-3.09c-0.34-1.14-0.5-2.3-0.5-3.46
		c0-1.43,0.21-2.95,0.64-4.54c0.43-1.59,0.89-3.04,1.38-4.34c2.25-5.07,4.96-8.83,8.12-11.3c3.17-2.46,6.39-3.7,9.67-3.7
		c1.93,0,3.34,0.45,4.21,1.34c0.88,0.9,1.31,2.06,1.31,3.5c0,1.3-0.36,2.73-1.08,4.3c-0.72,1.57-1.76,3.09-3.11,4.57
		c-1.35,1.48-2.98,2.85-4.89,4.1c-1.91,1.26-4.04,2.2-6.38,2.82c-0.23,0.85-0.4,1.66-0.51,2.42c-0.11,0.76-0.17,1.52-0.17,2.29
		c0,1.26,0.18,2.21,0.54,2.86c0.36,0.65,0.99,0.97,1.88,0.97c1.39,0,2.92-0.58,4.61-1.75c1.68-1.16,3.29-2.61,4.84-4.34
		c1.55-1.73,2.95-3.55,4.2-5.48c1.26-1.93,2.2-3.65,2.82-5.18c0.27-0.76,0.85-1.14,1.75-1.14c0.13,0,0.28,0.01,0.44,0.03
		c0.16,0.02,0.35,0.1,0.57,0.23L221.78,121.69z M211.76,114.22c-1.12,0.09-2.53,1.21-4.22,3.36c-1.7,2.15-3.42,5.13-5.16,8.94
		c1.7-0.72,3.17-1.58,4.42-2.59c1.25-1.01,2.28-2.04,3.08-3.09c0.81-1.05,1.41-2.08,1.81-3.09c0.4-1.01,0.6-1.85,0.6-2.52
		C212.3,114.74,212.12,114.4,211.76,114.22z"/>
</g>
<g>
	<path class="st34" d="M120.92,164.77c-0.15,0-0.31-0.01-0.5-0.03c-0.19-0.02-0.37-0.04-0.55-0.06v2.74l1.16,0.54v0.37h-4.71v-0.37
		l1.16-0.54v-8.34l-1.16-0.54v-0.36h2.71c0.34-0.05,0.68-0.09,1.01-0.12s0.63-0.04,0.89-0.04c0.74,0,1.41,0.07,2.02,0.21
		c0.61,0.14,1.13,0.35,1.55,0.63s0.76,0.63,1,1.05c0.24,0.42,0.36,0.92,0.36,1.47c0,0.56-0.12,1.05-0.35,1.47s-0.57,0.78-1,1.06
		c-0.43,0.29-0.95,0.5-1.56,0.64S121.67,164.77,120.92,164.77z M119.87,163.99c0.31,0.06,0.61,0.09,0.92,0.09
		c0.82,0,1.43-0.21,1.83-0.63s0.59-1.12,0.59-2.08c0-0.95-0.2-1.63-0.59-2.05s-1-0.63-1.82-0.63c-0.17,0-0.33,0.01-0.48,0.02
		s-0.3,0.03-0.45,0.06V163.99z"/>
	<path class="st34" d="M127.67,159.08l-1.16-0.54v-0.36h4.69v0.36l-1.14,0.54v8.34l1.14,0.54v0.37h-4.69v-0.37l1.16-0.54V159.08z"/>
	<path class="st34" d="M137.47,158.7c-0.43,0-0.82,0.08-1.17,0.25c-0.35,0.17-0.65,0.44-0.9,0.8c-0.25,0.37-0.44,0.83-0.57,1.4
		c-0.13,0.57-0.2,1.26-0.2,2.06c0,1.55,0.23,2.71,0.68,3.46c0.45,0.75,1.15,1.13,2.08,1.13c0.37,0,0.69-0.07,0.97-0.2
		c0.28-0.13,0.53-0.32,0.74-0.55c0.21-0.24,0.39-0.52,0.53-0.84c0.14-0.32,0.27-0.67,0.37-1.05l0.94-0.22
		c0.05,0.17,0.11,0.37,0.17,0.6c0.06,0.23,0.13,0.47,0.19,0.71c0.06,0.24,0.12,0.47,0.18,0.71c0.06,0.23,0.1,0.43,0.13,0.6
		c-0.17,0.11-0.4,0.22-0.71,0.33c-0.3,0.12-0.64,0.22-1.01,0.3c-0.38,0.08-0.78,0.16-1.21,0.21c-0.43,0.06-0.86,0.09-1.29,0.09
		c-0.86,0-1.62-0.12-2.29-0.35c-0.67-0.23-1.24-0.57-1.7-1.02c-0.47-0.45-0.82-1-1.06-1.65c-0.24-0.65-0.36-1.39-0.36-2.23
		c0-1.69,0.48-2.98,1.43-3.88c0.96-0.89,2.29-1.34,4-1.34c0.41,0,0.83,0.04,1.25,0.12s0.82,0.17,1.2,0.29
		c0.38,0.11,0.71,0.23,1.01,0.36s0.52,0.25,0.68,0.34c-0.04,0.19-0.09,0.41-0.14,0.66c-0.05,0.25-0.11,0.5-0.16,0.77
		c-0.05,0.26-0.11,0.52-0.17,0.76c-0.06,0.24-0.11,0.46-0.17,0.65h-0.97l-1.35-3.17C138.29,158.73,137.91,158.7,137.47,158.7z"/>
	<path class="st34" d="M148.09,158.16l3.82,9.32l1.03,0.54v0.37h-4.68v-0.37l1.09-0.54l-0.76-1.89h-3.57l-0.63,1.89l1.09,0.54v0.37
		h-3.39v-0.37l0.97-0.54l3.65-9.24L148.09,158.16z M145.28,164.85h3.01l-1.65-4.06L145.28,164.85z"/>
	<path class="st34" d="M158.04,168.48c-0.12,0-0.36-0.01-0.72-0.04c-0.37-0.03-0.81-0.07-1.32-0.12h-2.79v-0.37l1.16-0.54v-8.34
		l-1.16-0.54v-0.36h2.71c0.39-0.05,0.78-0.09,1.17-0.12s0.72-0.04,0.99-0.04c0.91,0,1.73,0.11,2.47,0.32
		c0.74,0.21,1.37,0.53,1.89,0.97c0.52,0.43,0.92,0.97,1.21,1.62c0.28,0.65,0.42,1.42,0.42,2.31c0,0.87-0.14,1.63-0.42,2.29
		c-0.28,0.66-0.68,1.21-1.21,1.64c-0.52,0.43-1.16,0.76-1.9,0.98S158.96,168.48,158.04,168.48z M156.76,167.67
		c0.23,0.04,0.46,0.07,0.67,0.1c0.21,0.02,0.42,0.03,0.63,0.03c1.13,0,1.97-0.36,2.53-1.07c0.55-0.71,0.83-1.88,0.83-3.51
		c0-1.61-0.27-2.76-0.82-3.46c-0.54-0.7-1.39-1.05-2.53-1.05c-0.44,0-0.88,0.04-1.32,0.11V167.67z"/>
	<path class="st34" d="M169.97,158.16l3.82,9.32l1.03,0.54v0.37h-4.68v-0.37l1.09-0.54l-0.76-1.89h-3.57l-0.63,1.89l1.09,0.54v0.37
		h-3.39v-0.37l0.97-0.54l3.65-9.24L169.97,158.16z M167.16,164.85h3.01l-1.65-4.06L167.16,164.85z"/>
	<path class="st34" d="M183.41,165.56c0,0.34-0.06,0.68-0.19,1.02c-0.13,0.34-0.35,0.66-0.67,0.94s-0.76,0.51-1.32,0.69
		c-0.56,0.18-1.27,0.27-2.14,0.27c-0.38,0-0.76-0.03-1.14-0.08c-0.38-0.05-0.74-0.12-1.07-0.2s-0.63-0.17-0.89-0.26
		c-0.26-0.09-0.47-0.18-0.63-0.27c0.07-0.44,0.16-0.9,0.26-1.36s0.21-0.89,0.33-1.29h0.98l1.08,2.6c0.17,0.05,0.36,0.1,0.56,0.13
		c0.21,0.03,0.38,0.05,0.53,0.05c0.64,0,1.14-0.13,1.48-0.4s0.52-0.62,0.52-1.05c0-0.25-0.06-0.48-0.18-0.67
		c-0.12-0.2-0.28-0.37-0.48-0.52c-0.2-0.15-0.43-0.29-0.7-0.42c-0.26-0.13-0.54-0.25-0.84-0.38c-0.39-0.16-0.79-0.33-1.19-0.51
		c-0.4-0.18-0.77-0.39-1.09-0.64c-0.33-0.25-0.59-0.55-0.8-0.9s-0.31-0.78-0.31-1.28c0-0.49,0.1-0.91,0.3-1.28
		c0.2-0.37,0.48-0.68,0.83-0.94c0.35-0.25,0.77-0.45,1.24-0.58c0.47-0.13,0.97-0.2,1.51-0.2c0.74,0,1.4,0.06,1.98,0.18
		c0.58,0.12,1.1,0.26,1.55,0.4c-0.02,0.15-0.05,0.32-0.08,0.52c-0.03,0.2-0.07,0.4-0.11,0.61c-0.04,0.21-0.09,0.42-0.14,0.63
		c-0.05,0.21-0.11,0.4-0.16,0.57h-0.97l-0.97-2.17c-0.12-0.02-0.25-0.04-0.4-0.05s-0.32-0.02-0.5-0.02c-0.62,0-1.11,0.14-1.46,0.42
		s-0.52,0.64-0.52,1.07c0,0.26,0.07,0.49,0.21,0.69s0.32,0.38,0.55,0.54s0.49,0.31,0.79,0.44c0.3,0.13,0.61,0.27,0.93,0.4
		c0.4,0.17,0.8,0.35,1.2,0.54c0.4,0.19,0.75,0.41,1.07,0.66c0.32,0.25,0.57,0.54,0.77,0.88
		C183.31,164.68,183.41,165.08,183.41,165.56z"/>
</g>
<g>
	<rect x="24.26" y="232.55" class="st32" width="251.47" height="35.95"/>
	<path class="st22" d="M45.11,253.68c0,0.66-0.12,1.38-0.36,2.16c-0.24,0.78-0.71,1.5-1.43,2.16c-0.71,0.66-1.71,1.21-2.99,1.64
		s-2.97,0.65-5.05,0.65c-0.93,0-1.84-0.07-2.75-0.2c-0.91-0.13-1.76-0.3-2.56-0.5c-0.79-0.2-1.51-0.42-2.14-0.65
		c-0.63-0.24-1.14-0.46-1.51-0.67c0.18-1.11,0.4-2.19,0.65-3.23s0.52-2.07,0.81-3.07h0.95l2.14,5.63c0.29,0.16,0.63,0.3,1.01,0.42
		c0.38,0.12,0.78,0.22,1.19,0.32c0.41,0.09,0.81,0.16,1.21,0.2c0.4,0.04,0.75,0.06,1.07,0.06c1.08,0,2.02-0.11,2.81-0.34
		c0.79-0.22,1.45-0.53,1.96-0.91c0.52-0.38,0.91-0.83,1.17-1.33c0.26-0.5,0.4-1.02,0.4-1.54c0-0.66-0.18-1.24-0.54-1.74
		c-0.36-0.5-0.83-0.96-1.41-1.39c-0.58-0.42-1.26-0.81-2.02-1.17c-0.77-0.36-1.57-0.72-2.42-1.09c-0.98-0.45-1.96-0.91-2.93-1.39
		s-1.86-1.03-2.64-1.66c-0.78-0.63-1.41-1.37-1.9-2.22c-0.49-0.85-0.73-1.84-0.73-2.97c0-1,0.2-1.92,0.61-2.75
		c0.41-0.83,0.99-1.54,1.74-2.12c0.75-0.58,1.66-1.03,2.71-1.35c1.06-0.32,2.23-0.48,3.53-0.48c1.74,0,3.31,0.15,4.7,0.46
		c1.39,0.3,2.65,0.64,3.78,1.01c-0.05,0.37-0.12,0.79-0.2,1.25c-0.08,0.46-0.17,0.94-0.28,1.43c-0.11,0.49-0.22,0.99-0.36,1.49
		c-0.13,0.5-0.26,0.96-0.4,1.39h-1.19l-1.98-4.92c-1.03-0.26-2.3-0.4-3.8-0.4c-1.61,0-2.91,0.38-3.9,1.13
		c-0.99,0.75-1.49,1.76-1.49,3.03c0,0.77,0.18,1.44,0.55,2.02c0.37,0.58,0.86,1.1,1.47,1.55c0.61,0.45,1.31,0.85,2.1,1.21
		c0.79,0.36,1.61,0.72,2.46,1.09c0.95,0.4,1.9,0.82,2.85,1.27c0.95,0.45,1.8,0.97,2.56,1.57c0.75,0.59,1.36,1.29,1.82,2.1
		C44.88,251.61,45.11,252.57,45.11,253.68z"/>
	<path class="st22" d="M61.8,260.3c-3.96,0-7.04-1.1-9.23-3.29s-3.29-5.47-3.29-9.83c0-4.41,1.1-7.69,3.31-9.83
		c2.21-2.14,5.28-3.21,9.21-3.21c3.91,0,6.96,1.07,9.16,3.21c2.19,2.14,3.29,5.42,3.29,9.83c0,4.33-1.1,7.6-3.29,9.81
		C68.76,259.19,65.71,260.3,61.8,260.3z M61.88,235.84c-2.85,0-5.01,0.93-6.48,2.79c-1.47,1.86-2.2,4.7-2.2,8.5
		c0,3.83,0.73,6.7,2.2,8.6s3.63,2.85,6.48,2.85c2.64,0,4.71-0.95,6.2-2.85s2.24-4.77,2.24-8.6c0-3.8-0.75-6.64-2.24-8.5
		C66.59,236.77,64.52,235.84,61.88,235.84z M64.26,226.17l1.51,1.82l-0.16,0.79l-6.98,3.69l-0.87-1.27L64.26,226.17z"/>
	<path class="st22" d="M81.02,236.79l-2.89-1.35v-0.91h8.92v0.91l-2.85,1.35v21.4h9l3.37-4.76h0.91l-0.44,6.46H78.13v-0.91
		l2.89-1.35V236.79z"/>
	<path class="st22" d="M113.44,260.3c-3.96,0-7.04-1.1-9.23-3.29s-3.29-5.47-3.29-9.83c0-4.41,1.1-7.69,3.31-9.83
		c2.21-2.14,5.28-3.21,9.21-3.21c3.91,0,6.96,1.07,9.16,3.21c2.19,2.14,3.29,5.42,3.29,9.83c0,4.33-1.1,7.6-3.29,9.81
		C120.4,259.19,117.35,260.3,113.44,260.3z M113.52,235.84c-2.85,0-5.01,0.93-6.48,2.79c-1.47,1.86-2.2,4.7-2.2,8.5
		c0,3.83,0.73,6.7,2.2,8.6s3.63,2.85,6.48,2.85c2.64,0,4.71-0.95,6.2-2.85s2.24-4.77,2.24-8.6c0-3.8-0.75-6.64-2.24-8.5
		C118.23,236.77,116.16,235.84,113.52,235.84z"/>
	<path class="st22" d="M149.63,260.02c-2.99-0.53-5.29-1.86-6.9-4c-1.61-2.14-2.42-5.09-2.42-8.84c0-4.41,1.1-7.69,3.31-9.83
		c2.21-2.14,5.28-3.21,9.21-3.21c3.91,0,6.96,1.07,9.16,3.21c2.19,2.14,3.29,5.42,3.29,9.83c0,3.8-0.85,6.78-2.54,8.94
		c-1.69,2.15-4.06,3.48-7.09,3.98l10.3,1.31l0.32,0.55l-1.7,2.5L149.63,260.02z M152.92,235.84c-2.85,0-5.01,0.93-6.48,2.79
		c-1.47,1.86-2.2,4.7-2.2,8.5c0,3.83,0.73,6.7,2.2,8.6s3.63,2.85,6.48,2.85c2.64,0,4.71-0.95,6.2-2.85s2.24-4.77,2.24-8.6
		c0-3.8-0.75-6.64-2.24-8.5C157.62,236.77,155.56,235.84,152.92,235.84z"/>
	<path class="st22" d="M182.44,258.59c2.4,0,4.23-0.61,5.49-1.84s1.88-2.91,1.88-5.05v-14.67l-3.05-1.58v-0.91h8.2v0.91l-2.77,1.51
		v14.78c0,2.72-0.81,4.83-2.42,6.32c-1.61,1.49-4.06,2.24-7.33,2.24c-1.82,0-3.39-0.21-4.7-0.61c-1.31-0.41-2.38-0.98-3.23-1.72
		c-0.85-0.74-1.47-1.64-1.86-2.7c-0.4-1.06-0.59-2.23-0.59-3.53v-15.18l-2.77-1.11v-0.91h9.35v0.91l-2.66,1.19v15.06
		c0,1.03,0.1,1.97,0.32,2.81c0.21,0.85,0.56,1.57,1.05,2.18c0.49,0.61,1.15,1.08,1.98,1.41
		C180.16,258.43,181.2,258.59,182.44,258.59z"/>
	<path class="st22" d="M201.23,257.64v-20.85l-2.89-1.35v-0.91h20.02l0.44,6.06h-1.11l-3.41-4.36h-9.87v10.07h7.41l1.9-2.85h0.91
		v7.33h-0.91l-1.9-2.77h-7.41v10.19h10.5l3.96-4.76h1.11l-0.44,6.46h-21.2v-0.91L201.23,257.64z"/>
	<path class="st22" d="M242.21,253.68c0,0.66-0.12,1.38-0.36,2.16c-0.24,0.78-0.71,1.5-1.43,2.16c-0.71,0.66-1.71,1.21-2.99,1.64
		s-2.97,0.65-5.05,0.65c-0.93,0-1.84-0.07-2.75-0.2c-0.91-0.13-1.76-0.3-2.56-0.5c-0.79-0.2-1.51-0.42-2.14-0.65
		c-0.63-0.24-1.14-0.46-1.51-0.67c0.18-1.11,0.4-2.19,0.65-3.23s0.52-2.07,0.81-3.07h0.95l2.14,5.63c0.29,0.16,0.63,0.3,1.01,0.42
		c0.38,0.12,0.78,0.22,1.19,0.32c0.41,0.09,0.81,0.16,1.21,0.2c0.4,0.04,0.75,0.06,1.07,0.06c1.08,0,2.02-0.11,2.81-0.34
		c0.79-0.22,1.45-0.53,1.96-0.91c0.52-0.38,0.91-0.83,1.17-1.33c0.26-0.5,0.4-1.02,0.4-1.54c0-0.66-0.18-1.24-0.54-1.74
		c-0.36-0.5-0.83-0.96-1.41-1.39c-0.58-0.42-1.26-0.81-2.02-1.17c-0.77-0.36-1.57-0.72-2.42-1.09c-0.98-0.45-1.96-0.91-2.93-1.39
		s-1.86-1.03-2.64-1.66c-0.78-0.63-1.41-1.37-1.9-2.22c-0.49-0.85-0.73-1.84-0.73-2.97c0-1,0.2-1.92,0.61-2.75
		c0.41-0.83,0.99-1.54,1.74-2.12c0.75-0.58,1.66-1.03,2.71-1.35c1.06-0.32,2.23-0.48,3.53-0.48c1.74,0,3.31,0.15,4.7,0.46
		c1.39,0.3,2.65,0.64,3.78,1.01c-0.05,0.37-0.12,0.79-0.2,1.25c-0.08,0.46-0.17,0.94-0.28,1.43c-0.11,0.49-0.22,0.99-0.36,1.49
		c-0.13,0.5-0.26,0.96-0.4,1.39h-1.19l-1.98-4.92c-1.03-0.26-2.3-0.4-3.8-0.4c-1.61,0-2.91,0.38-3.9,1.13
		c-0.99,0.75-1.49,1.76-1.49,3.03c0,0.77,0.18,1.44,0.55,2.02c0.37,0.58,0.86,1.1,1.47,1.55c0.61,0.45,1.31,0.85,2.1,1.21
		c0.79,0.36,1.61,0.72,2.46,1.09c0.95,0.4,1.9,0.82,2.85,1.27c0.95,0.45,1.8,0.97,2.56,1.57c0.75,0.59,1.36,1.29,1.82,2.1
		C241.98,251.61,242.21,252.57,242.21,253.68z"/>
	<path class="st22" d="M258.9,260.3c-3.96,0-7.04-1.1-9.23-3.29s-3.29-5.47-3.29-9.83c0-4.41,1.1-7.69,3.31-9.83
		c2.21-2.14,5.28-3.21,9.21-3.21c3.91,0,6.96,1.07,9.16,3.21c2.19,2.14,3.29,5.42,3.29,9.83c0,4.33-1.1,7.6-3.29,9.81
		C265.86,259.19,262.81,260.3,258.9,260.3z M258.98,235.84c-2.85,0-5.01,0.93-6.48,2.79c-1.47,1.86-2.2,4.7-2.2,8.5
		c0,3.83,0.73,6.7,2.2,8.6s3.63,2.85,6.48,2.85c2.64,0,4.71-0.95,6.2-2.85s2.24-4.77,2.24-8.6c0-3.8-0.75-6.64-2.24-8.5
		C263.69,236.77,261.62,235.84,258.98,235.84z"/>
</g>
</svg>
