<?xml version="1.0" encoding="utf-8"?>
<!-- Generator: Adobe Illustrator 24.3.0, SVG Export Plug-In . SVG Version: 6.00 Build 0)  -->
<svg version="1.1" id="Capa_1" xmlns="http://www.w3.org/2000/svg" xmlns:xlink="http://www.w3.org/1999/xlink" x="0px" y="0px"
	 viewBox="0 0 300 300" style="enable-background:new 0 0 300 300;" xml:space="preserve">
<style type="text/css">
	.st0{fill-rule:evenodd;clip-rule:evenodd;fill:#1A1B1A;}
	.st1{fill:#282828;}
	.st2{fill:#ED9812;}
	.st3{fill-rule:evenodd;clip-rule:evenodd;fill:#ED9812;}
	.st4{fill:#F1AC49;}
	.st5{fill:#E9A542;}
	.st6{fill:none;stroke:#ED9812;stroke-width:25;stroke-miterlimit:10;}
	.st7{fill:none;stroke:#F6A75B;stroke-width:4;stroke-miterlimit:10;}
	.st8{fill-rule:evenodd;clip-rule:evenodd;fill:#FFFFFF;}
	.st9{fill:none;stroke:#1A1B1A;stroke-width:25;stroke-miterlimit:10;}
	.st10{fill:none;stroke:#F29100;stroke-width:25;stroke-miterlimit:10;}
	.st11{fill:#FFFFFF;stroke:#F29100;stroke-width:11;stroke-miterlimit:10;}
	.st12{fill:#FFFFFF;stroke:#1D1D1B;stroke-width:11;stroke-miterlimit:10;}
	.st13{fill:#1D1D1B;}
	.st14{fill:#35563D;stroke:#35563D;stroke-miterlimit:10;}
	.st15{fill:#D1CCB6;}
	.st16{fill:#B4AF93;}
	.st17{fill:#5F926F;}
	.st18{fill:#70A984;}
	.st19{fill:#ACD5B7;}
	.st20{fill:#772424;}
	.st21{fill:#FFFFFF;stroke:#FFFFFF;stroke-width:3;stroke-miterlimit:10;}
	.st22{fill:#FFFFFF;}
	.st23{fill:#030306;}
	.st24{fill-opacity:0.2;}
	.st25{fill:url(#SVGID_1_);}
	.st26{fill:url(#SVGID_2_);}
	.st27{fill:#551E1E;}
	.st28{fill:#EFD6B3;}
	.st29{fill:#D2B058;}
	.st30{fill:#A38544;}
	.st31{fill:none;}
	.st32{fill:#1D1E1C;stroke:#1D1E1C;stroke-miterlimit:10;}
	.st33{fill:#1D1E1C;}
	.st34{fill:#561E1E;}
	.st35{fill:#D2B057;}
	.st36{fill:#A28443;}
	.st37{fill:#1D1D1B;stroke:#FFFFFF;stroke-width:2;stroke-miterlimit:10;}
</style>
<g>
	<g>
	</g>
</g>
<g>
	<g>
		<path class="st13" d="M150,26.99c-53.3,0-96.51,43.22-96.51,96.51c0,53.31,43.21,96.51,96.51,96.51
			c53.31,0,96.51-43.21,96.51-96.51C246.51,70.21,203.3,26.99,150,26.99z M95.67,193.06c-47.47-36.12-28.38-65.02-28.38-65.02
			s0.68,3.54,3.63,8.89c6.38,37.91,39.36,66.78,79.08,66.78c18.86,0,36.2-6.51,49.89-17.4c2.54,0.04,5.12,0.05,7.75,0.04
			C207.64,186.35,143.14,229.18,95.67,193.06z"/>
		<path class="st13" d="M210,185.52c0,0-66.67,48.49-115.74,7.6c-49.07-40.89-29.34-73.61-29.34-73.61s0.71,4.01,3.75,10.06
			c6.6,42.92,40.69,75.6,81.74,75.6c19.49,0,37.42-7.37,51.57-19.7C204.61,185.52,207.28,185.52,210,185.52z"/>
		<path class="st37" d="M230.21,123.51c0,25.44-11.84,48.11-30.32,62.8c-13.69,10.89-31.04,17.4-49.89,17.4
			c-39.72,0-72.7-28.87-79.08-66.78c-0.74-4.37-1.12-8.85-1.12-13.42c0-44.29,35.91-80.2,80.2-80.2
			C194.3,43.3,230.21,79.22,230.21,123.51z"/>
		<g>
			<path class="st22" d="M161.35,98.77c0,0.78-0.12,1.61-0.36,2.49c-0.24,0.88-0.69,1.7-1.36,2.46c-0.67,0.75-1.61,1.37-2.81,1.84
				c-1.21,0.47-2.76,0.71-4.66,0.71c-1.29,0-2.86-0.12-4.69-0.36c-1.83-0.24-3.83-0.56-5.98-0.97c-2.16-0.41-4.43-0.88-6.82-1.42
				c-2.39-0.54-4.8-1.09-7.21-1.65c-2.54-0.56-5.08-1.11-7.6-1.65c-2.52-0.54-4.93-1.02-7.21-1.45c-2.29-0.43-4.41-0.78-6.37-1.03
				c-1.96-0.26-3.65-0.39-5.08-0.39c-1.42,0-2.75,0.22-3.98,0.65c-1.23,0.43-2.32,1.01-3.27,1.75c-0.95,0.73-1.69,1.58-2.23,2.55
				c-0.54,0.97-0.81,1.99-0.81,3.07c0,1.64,0.55,2.96,1.65,3.98c1.1,1.01,2.51,1.52,4.24,1.52c0.26,0,0.49-0.02,0.71-0.06
				c0.13,0,0.29-0.01,0.49-0.03c0.19-0.02,0.38-0.03,0.55-0.03c0.22,0,0.42,0.09,0.61,0.26c0.19,0.17,0.29,0.37,0.29,0.58
				c0,0.39-0.29,1-0.87,1.84s-1.36,1.68-2.33,2.52c-0.97,0.84-2.1,1.57-3.39,2.2c-1.29,0.63-2.63,0.94-4.01,0.94
				c-1.25,0-2.4-0.18-3.46-0.55c-1.06-0.37-1.97-0.89-2.75-1.58c-0.78-0.69-1.39-1.5-1.84-2.42c-0.45-0.93-0.68-1.95-0.68-3.07
				c0-2.72,0.6-5.23,1.81-7.53c1.21-2.31,2.79-4.28,4.75-5.92c1.96-1.64,4.2-2.92,6.72-3.85c2.52-0.93,5.12-1.39,7.79-1.39
				c1.68,0,3.5,0.11,5.46,0.32c1.96,0.22,3.99,0.49,6.08,0.81c2.09,0.32,4.2,0.68,6.34,1.07s4.19,0.78,6.17,1.16
				c2.85,0.56,5.54,1.06,8.08,1.49c2.54,0.43,4.57,0.69,6.08,0.78h1.42c1.59,0,3.09-0.09,4.49-0.26c1.4-0.17,2.63-0.43,3.69-0.78
				c1.06-0.34,1.9-0.8,2.52-1.36c0.62-0.56,0.94-1.21,0.94-1.94c0-0.09-0.01-0.14-0.03-0.16c-0.02-0.02-0.03-0.07-0.03-0.16v-0.39
				c0-0.78,0.56-1.16,1.68-1.16c0.56,0,1.24,0.13,2.04,0.39c0.8,0.26,1.57,0.65,2.33,1.16c0.75,0.52,1.41,1.15,1.97,1.91
				c0.56,0.75,0.86,1.65,0.9,2.68V98.77z M95.33,153.54c-0.09-0.26-0.14-0.5-0.16-0.71c-0.02-0.22-0.03-0.47-0.03-0.78
				c0-1.16,0.25-2.74,0.74-4.72c0.49-1.98,1.15-4.2,1.97-6.66c0.82-2.46,1.73-5.06,2.75-7.82c1.01-2.76,2.01-5.5,3.01-8.21
				c0.78-2.11,1.53-4.15,2.26-6.11c0.73-1.96,1.37-3.76,1.91-5.4c0.54-1.64,0.98-3.06,1.33-4.27c0.34-1.21,0.52-2.11,0.52-2.72
				c0-0.21,0.01-0.29,0.03-0.23c0.02,0.06,0.01,0.05-0.03-0.03c-0.22-0.13-0.32-0.34-0.32-0.65c0-0.43,0.49-0.85,1.49-1.26
				c0.99-0.41,2.09-0.61,3.3-0.61c0.69,0,1.35,0.06,1.97,0.19c0.62,0.13,1.19,0.38,1.68,0.74c0.5,0.37,0.88,0.84,1.16,1.42
				c0.28,0.58,0.42,1.33,0.42,2.23c0,1.34-0.26,3.01-0.77,5.01c-0.52,2-1.18,4.17-2,6.5c-0.82,2.33-1.73,4.76-2.74,7.31
				c-1.01,2.54-2.01,5.04-3,7.5c-0.86,2.16-1.7,4.26-2.51,6.3c-0.82,2.05-1.55,3.97-2.19,5.75c-0.64,1.79-1.16,3.39-1.55,4.82
				s-0.58,2.56-0.58,3.43v0.32c0,0.6-0.37,1.13-1.11,1.58c-0.74,0.45-1.65,0.68-2.74,0.68c-0.96,0-1.9-0.27-2.83-0.81
				c-0.93-0.54-1.62-1.5-2.05-2.88L95.33,153.54z"/>
			<path class="st22" d="M143.63,114.03c0,0.22-0.01,0.41-0.03,0.58c-0.02,0.17-0.05,0.35-0.1,0.52c0.3-0.69,0.54-1.3,0.71-1.84
				c0.17-0.54,0.26-0.98,0.26-1.33c0-0.09-0.04-0.22-0.13-0.39c-0.09-0.09-0.15-0.16-0.19-0.23c-0.04-0.06-0.07-0.2-0.07-0.42
				c0-0.47,0.36-0.89,1.07-1.26c0.71-0.37,1.56-0.55,2.55-0.55c0.56,0,1.14,0.09,1.75,0.26c0.6,0.17,1.16,0.45,1.68,0.84
				s0.95,0.93,1.29,1.62c0.34,0.69,0.52,1.55,0.52,2.59c0,0.95-0.18,2.02-0.55,3.2c-0.37,1.19-0.84,2.42-1.42,3.72
				c-0.58,1.29-1.22,2.58-1.91,3.85c-0.69,1.27-1.36,2.49-2,3.65c-0.91,1.64-1.72,3.17-2.46,4.59c-0.73,1.42-1.1,2.46-1.1,3.1
				c0,0.26,0.15,0.39,0.45,0.39c0.34,0,0.84-0.28,1.49-0.84c0.65-0.56,1.37-1.3,2.17-2.23c0.8-0.93,1.62-1.96,2.46-3.1
				c0.84-1.14,1.64-2.31,2.39-3.49c0.75-1.19,1.43-2.33,2.04-3.43c0.6-1.1,1.06-2.04,1.36-2.81c0.3-0.78,0.84-1.16,1.62-1.16
				c0.47,0,0.89,0.14,1.26,0.42c0.37,0.28,0.55,0.66,0.55,1.13c0,0.09-0.02,0.21-0.07,0.36c-0.04,0.15-0.09,0.27-0.13,0.36
				c-0.43,0.86-1,1.93-1.71,3.2c-0.71,1.27-1.53,2.62-2.46,4.04c-0.93,1.42-1.92,2.85-2.97,4.27c-1.06,1.42-2.14,2.71-3.27,3.85
				c-1.12,1.14-2.24,2.07-3.36,2.78c-1.12,0.71-2.2,1.07-3.23,1.07c-1.51,0-2.73-0.49-3.65-1.49c-0.93-0.99-1.48-2.35-1.65-4.07
				c-1.21,1.64-2.52,2.97-3.94,4.01c-1.42,1.03-3.04,1.55-4.85,1.55c-1.64,0-3.04-0.29-4.2-0.87c-1.16-0.58-2.1-1.33-2.81-2.23
				c-0.71-0.91-1.23-1.92-1.55-3.04c-0.32-1.12-0.48-2.22-0.48-3.3c0-1.38,0.19-2.81,0.58-4.3c0.39-1.49,0.84-2.88,1.36-4.17
				c2.11-5.04,4.62-8.71,7.53-10.99c2.91-2.28,5.92-3.43,9.02-3.43c0.52,0,1.13,0.06,1.84,0.19c0.71,0.13,1.39,0.39,2.04,0.78
				c0.65,0.39,1.2,0.91,1.65,1.55C143.4,112.16,143.63,113,143.63,114.03z M138.33,114.68c0-0.78,0.26-1.38,0.78-1.81h-0.13
				c-1.08,0-2.42,1.03-4.04,3.1c-1.62,2.07-3.31,5-5.08,8.79c-0.6,1.25-1.08,2.61-1.42,4.07c-0.34,1.47-0.52,2.82-0.52,4.07
				c0,1.12,0.16,2.1,0.49,2.94c0.32,0.84,0.85,1.26,1.58,1.26c0.65,0,1.34-0.38,2.07-1.13c0.73-0.75,1.49-1.72,2.26-2.91
				c0.78-1.19,1.55-2.51,2.33-3.98c0.78-1.47,1.53-2.89,2.26-4.27v0.06c0.26-0.52,0.52-1.02,0.78-1.52
				c0.26-0.49,0.52-0.98,0.78-1.45v0.06l1.23-2.72l1.55-3.49c-0.22,0.47-0.53,0.81-0.94,1c-0.41,0.19-0.85,0.29-1.33,0.29
				c-0.69,0-1.3-0.21-1.84-0.65C138.6,116,138.33,115.41,138.33,114.68z"/>
			<path class="st22" d="M164.39,140.03c-0.99,0.47-1.94,0.84-2.85,1.1c-0.91,0.26-1.7,0.39-2.39,0.39c-1.21,0-2.24-0.2-3.1-0.61
				c-0.86-0.41-1.56-0.95-2.1-1.62c-0.54-0.67-0.93-1.41-1.16-2.23c-0.24-0.82-0.35-1.64-0.35-2.46c0-1.29,0.24-2.38,0.71-3.27
				c0.47-0.88,1.03-1.59,1.68-2.13c0.65-0.54,1.29-0.92,1.94-1.13c0.65-0.21,1.12-0.32,1.42-0.32c0.69,0,1.35,0.21,1.97,0.61
				c0.62,0.41,0.94,1.02,0.94,1.84c0,0.69-0.27,1.28-0.81,1.78c-0.54,0.5-1.15,0.74-1.84,0.74c-0.78,0-1.38-0.24-1.81-0.71
				c-0.26,0.39-0.44,0.81-0.55,1.26c-0.11,0.45-0.16,0.92-0.16,1.39c0,0.82,0.22,1.56,0.65,2.23c0.43,0.67,1.1,1,2,1
				c0.34,0,0.83-0.16,1.45-0.49c0.62-0.32,1.24-0.86,1.84-1.62c0.6-0.75,1.13-1.72,1.58-2.91c0.45-1.19,0.68-2.62,0.68-4.3
				c0-1.38-0.21-2.93-0.61-4.66c-0.41-1.72-1.11-3.66-2.1-5.82c-0.26,0.52-0.55,1.07-0.87,1.65c-0.32,0.58-0.66,1.11-1,1.58
				c-0.35,0.47-0.69,0.87-1.03,1.2c-0.35,0.32-0.69,0.49-1.03,0.49c-0.47,0-0.88-0.14-1.23-0.42c-0.34-0.28-0.52-0.66-0.52-1.13
				c0-0.13,0.01-0.25,0.03-0.36c0.02-0.11,0.1-0.27,0.23-0.49l-0.06,0.13c0.35-0.69,0.66-1.33,0.94-1.91
				c0.28-0.58,0.57-1.11,0.87-1.58c0.3-0.52,0.57-0.97,0.81-1.36c0.24-0.39,0.51-0.88,0.81-1.49c-0.43-0.69-0.78-1.43-1.03-2.23
				c-0.26-0.8-0.39-1.63-0.39-2.49c0-0.39,0.09-0.91,0.26-1.58c0.17-0.67,0.46-1.3,0.87-1.91c0.41-0.6,0.98-1.13,1.71-1.58
				c0.73-0.45,1.68-0.68,2.85-0.68c1.38,0,2.36,0.3,2.94,0.91c0.58,0.6,0.87,1.38,0.87,2.33c0,0.73-0.16,1.53-0.48,2.39
				c-0.32,0.86-0.77,1.68-1.33,2.46l-0.06,0.06c2.59,2.97,4.42,5.74,5.5,8.31c1.08,2.56,1.62,4.9,1.62,7.02v0.45
				c0,0.04,0.02,0.06,0.06,0.06c0,0.09-0.02,0.19-0.06,0.32c1.08-1.25,2.04-2.49,2.88-3.72c0.84-1.23,1.54-2.34,2.1-3.33
				c0.34-0.69,0.82-1.03,1.42-1.03c0.47,0,0.92,0.18,1.32,0.55c0.41,0.37,0.61,0.79,0.61,1.26c0,0.13-0.02,0.27-0.06,0.42
				c-0.04,0.15-0.09,0.27-0.13,0.36c-0.86,1.6-1.9,3.27-3.1,5.01c-1.21,1.75-2.52,3.42-3.95,5.01c-1.42,1.6-2.93,3.04-4.53,4.33
				c-1.6,1.29-3.23,2.26-4.91,2.91H164.39z"/>
			<path class="st22" d="M169.88,107.12c-0.04,0.6-0.21,1.07-0.52,1.39c-0.3,0.32-0.67,0.49-1.1,0.49c-0.52,0-1.04-0.32-1.58-0.97
				c-0.54-0.65-0.81-1.64-0.81-2.97c0-1.51,0.32-2.76,0.97-3.75c0.65-0.99,1.54-1.77,2.68-2.33c1.14-0.56,2.5-0.95,4.07-1.16
				c1.57-0.21,3.27-0.32,5.08-0.32c1.38,0,2.8,0.04,4.27,0.13c1.47,0.09,3,0.19,4.59,0.32c0.47-1.21,0.87-2.33,1.2-3.36
				c0.32-1.03,0.48-1.77,0.48-2.2c0-0.09-0.02-0.15-0.06-0.19c-0.13-0.09-0.19-0.26-0.19-0.52c0-0.47,0.36-0.89,1.07-1.26
				c0.72-0.37,1.57-0.55,2.57-0.55c0.52,0,1.08,0.08,1.69,0.23c0.61,0.15,1.17,0.41,1.69,0.78c0.52,0.37,0.96,0.85,1.3,1.45
				c0.35,0.6,0.52,1.38,0.52,2.33c0,1.12-0.22,2.46-0.65,4.01h1.74c1.59,0,3.13-0.04,4.64-0.13c1.5-0.09,2.83-0.22,3.99-0.39
				c1.16-0.17,2.09-0.39,2.8-0.65c0.71-0.26,1.06-0.58,1.06-0.97c0-1.03,0.45-1.55,1.36-1.55c0.47,0,1.01,0.27,1.62,0.81
				c0.6,0.54,0.9,1.15,0.9,1.84c0,0.73-0.55,1.44-1.65,2.13c-1.1,0.69-2.56,1.29-4.4,1.81c-1.83,0.52-3.96,0.95-6.37,1.29
				c-2.41,0.35-4.94,0.56-7.57,0.65c-0.95,2.33-2.08,4.81-3.39,7.44c-1.32,2.63-2.6,5.24-3.85,7.82c-0.99,1.94-1.93,3.84-2.81,5.69
				c-0.88,1.85-1.68,3.56-2.39,5.11c-0.71,1.55-1.27,2.92-1.68,4.11c-0.41,1.19-0.61,2.1-0.61,2.75c0,0.35,0.06,0.52,0.19,0.52
				c0.39,0,0.9-0.29,1.55-0.87c0.65-0.58,1.36-1.35,2.13-2.3c0.78-0.95,1.58-2,2.42-3.17c0.84-1.16,1.64-2.34,2.39-3.52
				c0.75-1.19,1.42-2.31,2-3.36c0.58-1.06,1-1.95,1.26-2.68c0.3-0.78,0.84-1.16,1.62-1.16c0.47,0,0.89,0.14,1.26,0.42
				c0.37,0.28,0.55,0.66,0.55,1.13c0,0.09-0.02,0.21-0.06,0.36c-0.04,0.15-0.09,0.27-0.13,0.36c-0.43,0.86-1,1.93-1.71,3.2
				c-0.71,1.27-1.53,2.62-2.46,4.04c-0.93,1.42-1.92,2.85-2.98,4.27c-1.06,1.42-2.14,2.71-3.27,3.85c-1.12,1.14-2.24,2.07-3.36,2.78
				c-1.12,0.71-2.2,1.07-3.23,1.07c-1.68,0-2.98-0.59-3.91-1.78c-0.93-1.19-1.39-2.81-1.39-4.88c0-0.3,0.01-0.59,0.03-0.87
				c0.02-0.28,0.05-0.57,0.1-0.87c0.13-1.03,0.47-2.38,1.03-4.04c0.56-1.66,1.25-3.51,2.07-5.56c0.82-2.05,1.72-4.21,2.72-6.5
				c0.99-2.28,1.98-4.57,2.98-6.85l2.85-6.47c-2.11,0-4.1,0.03-5.95,0.1c-1.85,0.06-3.46,0.22-4.82,0.45
				c-1.36,0.24-2.45,0.59-3.27,1.07c-0.82,0.47-1.25,1.12-1.29,1.94V107.12z"/>
			<path class="st22" d="M219.02,120.05c0.56,0.35,0.84,0.82,0.84,1.42c0,0.09-0.02,0.22-0.07,0.39c-0.04,0.17-0.11,0.37-0.19,0.58
				c-0.99,2.03-2.24,4.14-3.75,6.34c-1.51,2.2-3.19,4.23-5.04,6.08c-1.85,1.85-3.83,3.38-5.92,4.59c-2.09,1.21-4.21,1.81-6.37,1.81
				c-1.68,0-3.1-0.28-4.27-0.84c-1.16-0.56-2.1-1.28-2.81-2.17c-0.71-0.88-1.23-1.87-1.55-2.97c-0.32-1.1-0.48-2.21-0.48-3.33
				c0-1.38,0.21-2.83,0.62-4.36c0.41-1.53,0.85-2.92,1.33-4.17c2.16-4.87,4.77-8.49,7.81-10.86c3.05-2.37,6.15-3.56,9.3-3.56
				c1.86,0,3.21,0.43,4.05,1.29c0.84,0.86,1.26,1.98,1.26,3.36c0,1.25-0.35,2.63-1.04,4.14c-0.69,1.51-1.69,2.97-2.99,4.4
				c-1.3,1.42-2.87,2.74-4.71,3.94c-1.84,1.21-3.88,2.11-6.14,2.72c-0.22,0.82-0.38,1.6-0.49,2.33c-0.11,0.73-0.16,1.47-0.16,2.2
				c0,1.21,0.17,2.12,0.52,2.75c0.34,0.63,0.95,0.94,1.81,0.94c1.34,0,2.81-0.56,4.43-1.68c1.62-1.12,3.17-2.51,4.66-4.17
				c1.49-1.66,2.83-3.42,4.04-5.27c1.21-1.85,2.11-3.51,2.72-4.98c0.26-0.73,0.82-1.1,1.68-1.1c0.13,0,0.27,0.01,0.42,0.03
				c0.15,0.02,0.33,0.1,0.55,0.23L219.02,120.05z M209.39,112.87c-1.07,0.09-2.43,1.16-4.06,3.23c-1.63,2.07-3.29,4.94-4.96,8.6
				c1.63-0.69,3.05-1.52,4.25-2.49c1.2-0.97,2.19-1.96,2.97-2.97c0.77-1.01,1.35-2,1.74-2.97c0.39-0.97,0.58-1.78,0.58-2.42
				C209.91,113.37,209.73,113.04,209.39,112.87z"/>
		</g>
		<g>
			<path class="st22" d="M120.27,164.14c-0.15,0-0.32-0.01-0.51-0.03c-0.19-0.02-0.38-0.04-0.56-0.07v2.82l1.19,0.55v0.38h-4.85
				v-0.38l1.19-0.55v-8.58l-1.19-0.56v-0.38h2.79c0.35-0.05,0.7-0.09,1.04-0.12s0.65-0.04,0.91-0.04c0.76,0,1.45,0.07,2.08,0.21
				c0.63,0.14,1.16,0.36,1.6,0.64c0.44,0.29,0.78,0.65,1.03,1.08c0.24,0.44,0.37,0.94,0.37,1.52s-0.12,1.08-0.36,1.52
				c-0.24,0.43-0.58,0.8-1.03,1.09s-0.98,0.51-1.61,0.66C121.74,164.06,121.04,164.14,120.27,164.14z M119.19,163.34
				c0.32,0.07,0.63,0.1,0.95,0.1c0.85,0,1.48-0.22,1.88-0.65c0.41-0.43,0.61-1.15,0.61-2.14c0-0.98-0.2-1.68-0.61-2.11
				c-0.41-0.43-1.03-0.64-1.87-0.64c-0.17,0-0.34,0.01-0.5,0.02c-0.16,0.02-0.31,0.04-0.47,0.06V163.34z"/>
			<path class="st22" d="M127.22,158.28l-1.19-0.56v-0.38h4.83v0.38l-1.17,0.56v8.58l1.17,0.55v0.38h-4.83v-0.38l1.19-0.55V158.28z"
				/>
			<path class="st22" d="M137.3,157.89c-0.45,0-0.85,0.09-1.21,0.26c-0.36,0.17-0.67,0.45-0.92,0.82c-0.26,0.38-0.45,0.86-0.59,1.44
				c-0.14,0.59-0.2,1.29-0.2,2.12c0,1.6,0.23,2.78,0.7,3.56c0.47,0.77,1.18,1.16,2.14,1.16c0.38,0,0.71-0.07,1-0.2
				c0.29-0.14,0.54-0.33,0.76-0.57c0.22-0.24,0.4-0.53,0.55-0.86s0.27-0.69,0.38-1.08l0.96-0.23c0.05,0.17,0.11,0.38,0.18,0.62
				s0.13,0.48,0.2,0.73c0.06,0.25,0.13,0.49,0.19,0.73c0.06,0.24,0.11,0.45,0.14,0.62c-0.17,0.11-0.42,0.22-0.73,0.34
				c-0.31,0.12-0.66,0.22-1.04,0.31c-0.39,0.09-0.8,0.16-1.24,0.22c-0.44,0.06-0.88,0.09-1.33,0.09c-0.88,0-1.67-0.12-2.36-0.36
				s-1.28-0.59-1.75-1.05c-0.48-0.46-0.84-1.03-1.09-1.7c-0.25-0.67-0.38-1.43-0.38-2.29c0-1.74,0.49-3.07,1.48-3.99
				s2.36-1.38,4.12-1.38c0.42,0,0.85,0.04,1.29,0.12c0.44,0.08,0.85,0.18,1.23,0.29c0.39,0.11,0.73,0.24,1.04,0.38
				c0.3,0.14,0.54,0.25,0.7,0.35c-0.04,0.2-0.09,0.42-0.15,0.68c-0.05,0.26-0.11,0.52-0.16,0.79c-0.05,0.27-0.11,0.53-0.17,0.78
				c-0.06,0.25-0.12,0.47-0.17,0.67h-1l-1.39-3.26C138.15,157.92,137.76,157.89,137.3,157.89z"/>
			<path class="st22" d="M148.23,157.33l3.93,9.59l1.06,0.55v0.38h-4.81v-0.38l1.13-0.55l-0.78-1.94h-3.67l-0.65,1.94l1.13,0.55
				v0.38h-3.49v-0.38l1-0.55l3.75-9.51L148.23,157.33z M145.35,164.22h3.1l-1.7-4.18L145.35,164.22z"/>
			<path class="st22" d="M158.48,167.95c-0.12,0-0.37-0.01-0.74-0.04c-0.38-0.03-0.83-0.07-1.36-0.12h-2.87v-0.38l1.19-0.55v-8.58
				l-1.19-0.56v-0.38h2.79c0.4-0.05,0.8-0.09,1.2-0.12c0.4-0.03,0.74-0.04,1.02-0.04c0.94,0,1.78,0.11,2.54,0.33
				c0.76,0.22,1.41,0.55,1.95,1c0.54,0.45,0.95,1,1.24,1.67s0.43,1.46,0.43,2.37c0,0.89-0.14,1.68-0.43,2.36s-0.7,1.24-1.24,1.69
				c-0.54,0.45-1.19,0.78-1.96,1.01C160.28,167.84,159.43,167.95,158.48,167.95z M157.16,167.12c0.24,0.04,0.47,0.08,0.69,0.1
				c0.22,0.02,0.43,0.03,0.65,0.03c1.16,0,2.03-0.37,2.6-1.1s0.86-1.94,0.86-3.61c0-1.65-0.28-2.84-0.84-3.56
				c-0.56-0.72-1.43-1.08-2.6-1.08c-0.46,0-0.91,0.04-1.35,0.11V167.12z"/>
			<path class="st22" d="M170.75,157.33l3.93,9.59l1.06,0.55v0.38h-4.81v-0.38l1.13-0.55l-0.78-1.94h-3.67l-0.65,1.94l1.13,0.55
				v0.38h-3.49v-0.38l1-0.55l3.75-9.51L170.75,157.33z M167.86,164.22h3.1l-1.7-4.18L167.86,164.22z"/>
			<path class="st22" d="M184.58,164.95c0,0.35-0.07,0.7-0.2,1.05c-0.13,0.35-0.36,0.67-0.69,0.96c-0.33,0.29-0.79,0.52-1.36,0.71
				c-0.58,0.19-1.31,0.28-2.2,0.28c-0.39,0-0.78-0.03-1.17-0.08c-0.39-0.05-0.76-0.12-1.1-0.2c-0.34-0.08-0.65-0.17-0.91-0.27
				c-0.27-0.1-0.48-0.19-0.64-0.28c0.08-0.46,0.17-0.92,0.27-1.39c0.1-0.47,0.21-0.92,0.33-1.33h1.01l1.11,2.68
				c0.17,0.05,0.37,0.1,0.58,0.13c0.21,0.03,0.39,0.05,0.55,0.05c0.66,0,1.17-0.14,1.53-0.42s0.53-0.64,0.53-1.08
				c0-0.26-0.06-0.49-0.19-0.69s-0.29-0.38-0.5-0.54c-0.21-0.16-0.45-0.3-0.72-0.43s-0.56-0.26-0.86-0.39
				c-0.4-0.16-0.81-0.34-1.22-0.52c-0.41-0.18-0.79-0.4-1.13-0.66s-0.61-0.56-0.82-0.92c-0.21-0.36-0.32-0.8-0.32-1.32
				c0-0.5,0.1-0.94,0.31-1.32c0.21-0.38,0.49-0.7,0.86-0.96c0.36-0.26,0.79-0.46,1.27-0.6s1-0.2,1.56-0.2
				c0.76,0,1.44,0.06,2.04,0.19c0.6,0.12,1.13,0.26,1.6,0.42c-0.02,0.15-0.05,0.33-0.08,0.53c-0.03,0.2-0.07,0.41-0.11,0.63
				c-0.04,0.22-0.09,0.44-0.15,0.65s-0.11,0.41-0.16,0.59h-1l-1-2.24c-0.12-0.02-0.26-0.04-0.42-0.05
				c-0.16-0.01-0.33-0.02-0.51-0.02c-0.64,0-1.14,0.14-1.5,0.43c-0.36,0.29-0.54,0.66-0.54,1.1c0,0.27,0.07,0.51,0.21,0.71
				c0.14,0.2,0.33,0.39,0.56,0.55c0.23,0.17,0.51,0.32,0.82,0.46c0.31,0.14,0.63,0.28,0.96,0.42c0.41,0.17,0.82,0.36,1.23,0.55
				c0.41,0.2,0.78,0.42,1.1,0.68s0.59,0.56,0.79,0.91C184.48,164.04,184.58,164.46,184.58,164.95z"/>
		</g>
	</g>
	<g>
		<rect x="-0.87" y="237.06" class="st31" width="301.74" height="35.95"/>
		<path class="st22" d="M11.22,255.01c-0.98,0-1.86-0.05-2.66-0.16c-0.79-0.11-1.29-0.18-1.51-0.24v7.53l2.89,1.35v0.91H1.04v-0.91
			l2.85-1.35V241.3L1,239.95v-0.91h5.23c0.92-0.13,1.8-0.23,2.64-0.3c0.83-0.07,1.62-0.1,2.36-0.1c3.7,0,6.51,0.7,8.44,2.1
			s2.89,3.42,2.89,6.06c0,2.64-0.98,4.67-2.93,6.08C17.67,254.31,14.87,255.01,11.22,255.01z M7.06,252.79
			c0.63,0.16,1.31,0.28,2.02,0.38c0.71,0.09,1.47,0.14,2.26,0.14c4.86,0,7.29-2.17,7.29-6.5c0-4.31-2.43-6.46-7.29-6.46
			c-0.79,0-1.55,0.05-2.26,0.14c-0.71,0.09-1.39,0.22-2.02,0.38V252.79z"/>
		<path class="st22" d="M28.66,241.3l-2.89-1.35v-0.91h8.92v0.91l-2.85,1.35v20.85l2.85,1.35v0.91h-8.92v-0.91l2.89-1.35V241.3z"/>
		<path class="st22" d="M51.01,240.35c-2.85,0-5.01,0.93-6.48,2.79c-1.47,1.86-2.2,4.7-2.2,8.5c0,3.83,0.75,6.7,2.26,8.6
			c1.51,1.9,3.73,2.85,6.66,2.85c2.14,0,3.79-0.48,4.95-1.43s1.98-2.38,2.46-4.28l1.07-0.28c0.34,0.9,0.64,1.8,0.89,2.71
			c0.25,0.91,0.47,1.79,0.65,2.64c-0.4,0.26-0.95,0.54-1.66,0.83c-0.71,0.29-1.52,0.54-2.42,0.75c-0.9,0.21-1.86,0.39-2.89,0.54
			c-1.03,0.14-2.07,0.22-3.13,0.22c-4.04,0-7.18-1.1-9.41-3.29c-2.23-2.19-3.35-5.47-3.35-9.83c0-4.41,1.1-7.69,3.31-9.83
			c2.21-2.14,5.28-3.21,9.21-3.21c1.03,0,2.05,0.11,3.07,0.34c1.02,0.22,1.97,0.5,2.85,0.83c0.88,0.33,1.68,0.68,2.38,1.05
			s1.25,0.7,1.64,0.99c-0.21,0.95-0.44,1.96-0.67,3.01c-0.24,1.06-0.5,2.05-0.79,2.97h-1.11l-2.66-6.82
			c-0.61-0.21-1.27-0.38-1.98-0.5C52.96,240.41,52.07,240.35,51.01,240.35z"/>
		<path class="st22" d="M77.61,238.84l9.55,23.3l2.85,1.35v0.91h-9.27v-0.91l2.74-1.35l-1.98-4.92H70.51l-1.82,4.92l2.74,1.35v0.91
			h-8.17v-0.91l2.7-1.35l9.12-23.11L77.61,238.84z M71.07,255.53h9.71l-5.11-12.64L71.07,255.53z"/>
		<path class="st22" d="M101.94,264.8c-0.26,0-0.77-0.03-1.53-0.1c-0.75-0.07-1.78-0.17-3.07-0.3h-5.47v-0.91l2.89-1.35V241.3
			l-2.89-1.35v-0.91h5.27c0.98-0.13,1.87-0.23,2.68-0.3c0.81-0.07,1.51-0.1,2.12-0.1c5.1,0,8.9,1.06,11.4,3.17
			c2.5,2.11,3.75,5.4,3.75,9.87C117.08,260.43,112.04,264.8,101.94,264.8z M97.94,262.58c1.61,0.34,3.06,0.52,4.36,0.52
			c7.24,0,10.86-3.82,10.86-11.45c0-7.53-3.62-11.3-10.86-11.3c-0.63,0-1.31,0.04-2.04,0.12c-0.73,0.08-1.5,0.21-2.32,0.4V262.58z"
			/>
		<path class="st22" d="M131.91,238.84l9.55,23.3l2.85,1.35v0.91h-9.27v-0.91l2.74-1.35l-1.98-4.92h-10.98l-1.82,4.92l2.74,1.35
			v0.91h-8.17v-0.91l2.7-1.35l9.12-23.11L131.91,238.84z M125.37,255.53h9.71l-5.11-12.64L125.37,255.53z"/>
		<path class="st22" d="M165.16,258.18c0,0.66-0.12,1.38-0.36,2.16c-0.24,0.78-0.71,1.5-1.43,2.16c-0.71,0.66-1.71,1.21-2.99,1.64
			c-1.28,0.44-2.97,0.65-5.05,0.65c-0.93,0-1.84-0.07-2.75-0.2c-0.91-0.13-1.76-0.3-2.56-0.5c-0.79-0.2-1.51-0.42-2.14-0.65
			c-0.63-0.24-1.14-0.46-1.51-0.67c0.18-1.11,0.4-2.19,0.65-3.23s0.52-2.07,0.81-3.07h0.95l2.14,5.63c0.29,0.16,0.63,0.3,1.01,0.42
			c0.38,0.12,0.78,0.23,1.19,0.32c0.41,0.09,0.81,0.16,1.21,0.2s0.75,0.06,1.07,0.06c1.08,0,2.02-0.11,2.81-0.34
			c0.79-0.22,1.45-0.53,1.96-0.91c0.52-0.38,0.91-0.83,1.17-1.33c0.26-0.5,0.4-1.02,0.4-1.55c0-0.66-0.18-1.24-0.54-1.74
			c-0.36-0.5-0.83-0.96-1.41-1.39c-0.58-0.42-1.26-0.81-2.02-1.17c-0.77-0.36-1.57-0.72-2.42-1.09c-0.98-0.45-1.96-0.91-2.93-1.39
			s-1.86-1.03-2.64-1.67c-0.78-0.63-1.41-1.37-1.9-2.22c-0.49-0.85-0.73-1.84-0.73-2.97c0-1,0.2-1.92,0.61-2.75
			c0.41-0.83,0.99-1.54,1.74-2.12s1.66-1.03,2.71-1.35c1.06-0.32,2.23-0.48,3.53-0.48c1.74,0,3.31,0.15,4.7,0.46
			c1.39,0.3,2.65,0.64,3.78,1.01c-0.05,0.37-0.12,0.79-0.2,1.25c-0.08,0.46-0.17,0.94-0.28,1.43c-0.11,0.49-0.22,0.98-0.36,1.49
			c-0.13,0.5-0.26,0.96-0.4,1.39h-1.19l-1.98-4.91c-1.03-0.26-2.3-0.4-3.8-0.4c-1.61,0-2.91,0.38-3.9,1.13
			c-0.99,0.75-1.49,1.76-1.49,3.03c0,0.77,0.18,1.44,0.55,2.02c0.37,0.58,0.86,1.1,1.47,1.55c0.61,0.45,1.31,0.85,2.1,1.21
			c0.79,0.36,1.61,0.72,2.46,1.09c0.95,0.4,1.9,0.82,2.85,1.27s1.8,0.97,2.56,1.57s1.36,1.29,1.82,2.1
			C164.93,256.12,165.16,257.08,165.16,258.18z"/>
		<path class="st22" d="M200.47,239.04l0.44,6.74h-1.03l-3.69-5.03H191v21.4l2.89,1.35v0.91h-8.96v-0.91l2.89-1.35v-21.4h-5.15
			l-3.69,5.03h-1.03l0.44-6.74H200.47z"/>
		<path class="st22" d="M213.28,238.84l9.55,23.3l2.85,1.35v0.91h-9.27v-0.91l2.74-1.35l-1.98-4.92h-10.98l-1.82,4.92l2.74,1.35
			v0.91h-8.17v-0.91l2.7-1.35l9.12-23.11L213.28,238.84z M206.74,255.53h9.71l-5.11-12.64L206.74,255.53z"/>
		<path class="st22" d="M246.53,258.18c0,0.66-0.12,1.38-0.36,2.16c-0.24,0.78-0.71,1.5-1.43,2.16c-0.71,0.66-1.71,1.21-2.99,1.64
			c-1.28,0.44-2.97,0.65-5.05,0.65c-0.93,0-1.84-0.07-2.75-0.2c-0.91-0.13-1.76-0.3-2.56-0.5c-0.79-0.2-1.51-0.42-2.14-0.65
			c-0.63-0.24-1.14-0.46-1.51-0.67c0.18-1.11,0.4-2.19,0.65-3.23s0.52-2.07,0.81-3.07h0.95l2.14,5.63c0.29,0.16,0.63,0.3,1.01,0.42
			c0.38,0.12,0.78,0.23,1.19,0.32c0.41,0.09,0.81,0.16,1.21,0.2s0.75,0.06,1.07,0.06c1.08,0,2.02-0.11,2.81-0.34
			c0.79-0.22,1.45-0.53,1.96-0.91c0.52-0.38,0.91-0.83,1.17-1.33c0.26-0.5,0.4-1.02,0.4-1.55c0-0.66-0.18-1.24-0.54-1.74
			c-0.36-0.5-0.83-0.96-1.41-1.39c-0.58-0.42-1.26-0.81-2.02-1.17c-0.77-0.36-1.57-0.72-2.42-1.09c-0.98-0.45-1.96-0.91-2.93-1.39
			s-1.86-1.03-2.64-1.67c-0.78-0.63-1.41-1.37-1.9-2.22c-0.49-0.85-0.73-1.84-0.73-2.97c0-1,0.2-1.92,0.61-2.75
			c0.41-0.83,0.99-1.54,1.74-2.12s1.66-1.03,2.71-1.35c1.06-0.32,2.23-0.48,3.53-0.48c1.74,0,3.31,0.15,4.7,0.46
			c1.39,0.3,2.65,0.64,3.78,1.01c-0.05,0.37-0.12,0.79-0.2,1.25c-0.08,0.46-0.17,0.94-0.28,1.43c-0.11,0.49-0.22,0.98-0.36,1.49
			c-0.13,0.5-0.26,0.96-0.4,1.39h-1.19l-1.98-4.91c-1.03-0.26-2.3-0.4-3.8-0.4c-1.61,0-2.91,0.38-3.9,1.13
			c-0.99,0.75-1.49,1.76-1.49,3.03c0,0.77,0.18,1.44,0.55,2.02c0.37,0.58,0.86,1.1,1.47,1.55c0.61,0.45,1.31,0.85,2.1,1.21
			c0.79,0.36,1.61,0.72,2.46,1.09c0.95,0.4,1.9,0.82,2.85,1.27s1.8,0.97,2.56,1.57s1.36,1.29,1.82,2.1
			C246.3,256.12,246.53,257.08,246.53,258.18z"/>
		<path class="st22" d="M271.54,239.04l0.44,6.74h-1.03l-3.69-5.03h-5.19v21.4l2.89,1.35v0.91H256v-0.91l2.89-1.35v-21.4h-5.15
			l-3.69,5.03h-1.03l0.44-6.74H271.54z"/>
		<path class="st22" d="M277.09,262.15V241.3l-2.89-1.35v-0.91h20.02l0.44,6.06h-1.11l-3.41-4.36h-9.87v10.07h7.41l1.9-2.85h0.91
			v7.33h-0.91l-1.9-2.77h-7.41v10.19h10.5l3.96-4.76h1.11l-0.44,6.46h-21.2v-0.91L277.09,262.15z"/>
	</g>
</g>
</svg>
